<svg width="60" height="60" viewBox="0 0 60 60" fill="none" xmlns="http://www.w3.org/2000/svg">
<path d="M37.3258 6.25V21C37.3258 22.1 36.0258 22.65 35.2258 21.925L30.8508 17.9C30.3758 17.45 29.6258 17.45 29.1508 17.9L24.7758 21.9C23.9758 22.65 22.6758 22.075 22.6758 21V6.25C22.6758 5.55 23.2258 5 23.9258 5H36.0758C36.7758 5 37.3258 5.55 37.3258 6.25Z" fill="#F860E8"/>
<path d="M42.45 5.15C41.725 5.05 41.075 5.675 41.075 6.4V21.45C41.075 23.35 39.95 25.075 38.2 25.85C36.45 26.6 34.425 26.275 33.025 24.975L30.85 22.975C30.375 22.525 29.65 22.525 29.15 22.975L26.975 24.975C26.075 25.825 24.9 26.25 23.725 26.25C23.075 26.25 22.425 26.125 21.8 25.85C20.05 25.075 18.925 23.35 18.925 21.45V6.4C18.925 5.675 18.275 5.05 17.55 5.15C10.55 6.025 7.5 10.75 7.5 17.5V42.5C7.5 50 11.25 55 20 55H40C48.75 55 52.5 50 52.5 42.5V17.5C52.5 10.75 49.45 6.025 42.45 5.15ZM43.75 46.875H22.5C21.475 46.875 20.625 46.025 20.625 45C20.625 43.975 21.475 43.125 22.5 43.125H43.75C44.775 43.125 45.625 43.975 45.625 45C45.625 46.025 44.775 46.875 43.75 46.875ZM43.75 36.875H33.125C32.1 36.875 31.25 36.025 31.25 35C31.25 33.975 32.1 33.125 33.125 33.125H43.75C44.775 33.125 45.625 33.975 45.625 35C45.625 36.025 44.775 36.875 43.75 36.875Z" fill="#F860E8"/>
</svg>
