<svg width="60" height="60" viewBox="0 0 60 60" fill="none" xmlns="http://www.w3.org/2000/svg">
<path opacity="0.4" d="M40.5996 9.125H19.3996C13.2246 9.125 8.22461 14.15 8.22461 20.3V43.825C8.22461 49.975 13.2496 55 19.3996 55H40.5746C46.7496 55 51.7496 49.975 51.7496 43.825V20.3C51.7746 14.125 46.7496 9.125 40.5996 9.125Z" fill="#00B027"/>
<path d="M35.8754 5H24.1254C21.5254 5 19.4004 7.1 19.4004 9.7V12.05C19.4004 14.65 21.5004 16.75 24.1004 16.75H35.8754C38.4754 16.75 40.5754 14.65 40.5754 12.05V9.7C40.6004 7.1 38.4754 5 35.8754 5Z" fill="#00B027"/>
<path d="M27.025 42.375C26.55 42.375 26.075 42.2 25.7 41.825L21.95 38.075C21.225 37.35 21.225 36.15 21.95 35.425C22.675 34.7 23.875 34.7 24.6 35.425L27.025 37.85L35.7 29.175C36.425 28.45 37.625 28.45 38.35 29.175C39.075 29.9 39.075 31.1 38.35 31.825L28.35 41.825C28 42.2 27.5 42.375 27.025 42.375Z" fill="#00B027"/>
</svg>
