<svg width="73" height="73" viewBox="0 0 73 73" fill="none" xmlns="http://www.w3.org/2000/svg">
<path d="M36.5 73C56.6584 73 73 56.6584 73 36.5C73 16.3416 56.6584 0 36.5 0C16.3416 0 0 16.3416 0 36.5C0 56.6584 16.3416 73 36.5 73Z" fill="#FFB0B0"/>
<path d="M58.3996 73.0002H14.5996V25.7935C16.6641 25.7912 18.6433 24.9701 20.1031 23.5103C21.5628 22.0505 22.384 20.0713 22.3863 18.0068H50.6129C50.6108 19.0295 50.8114 20.0425 51.2033 20.9871C51.5951 21.9317 52.1704 22.7892 52.8959 23.5101C53.6167 24.2357 54.4743 24.8112 55.419 25.2032C56.3637 25.5951 57.3768 25.7958 58.3996 25.7935V73.0002Z" fill="#FFCBCB"/>
<path d="M36.52 26C30.1456 26 25 31.1456 25 37.52C25 43.8944 30.1456 49.04 36.52 49.04C42.8944 49.04 48.04 43.8944 48.04 37.52C48.04 31.1456 42.8944 26 36.52 26ZM42.3824 41.4112C42.9201 41.9489 42.9201 42.8192 42.3824 43.3568C42.1008 43.6384 41.768 43.7664 41.4096 43.7664C41.0512 43.7664 40.6928 43.6384 40.4367 43.3568L36.5969 39.5168L32.7313 43.3568C32.4497 43.6384 32.1169 43.7664 31.7585 43.7664C31.4001 43.7664 31.0417 43.6384 30.7856 43.3568C30.248 42.8191 30.248 41.9487 30.7856 41.4112L34.6512 37.5456L30.7856 33.7055C30.248 33.1678 30.248 32.2974 30.7856 31.7599C31.3233 31.2222 32.1937 31.2222 32.7312 31.7599L36.5968 35.6255L40.4623 31.7599C41 31.2222 41.8704 31.2222 42.4079 31.7599C42.9456 32.2976 42.9456 33.168 42.4079 33.7055L38.5425 37.5712L42.3824 41.4112Z" fill="#FF5151"/>
<path d="M42.8282 52.5596H30.1748C29.3685 52.5596 28.7148 53.2132 28.7148 54.0196C28.7148 54.8259 29.3685 55.4796 30.1748 55.4796H42.8282C43.6345 55.4796 44.2882 54.8259 44.2882 54.0196C44.2882 53.2132 43.6345 52.5596 42.8282 52.5596Z" fill="#FF5151"/>
<path d="M47.2054 58.3999H25.792C24.9857 58.3999 24.332 59.0536 24.332 59.8599C24.332 60.6662 24.9857 61.3199 25.792 61.3199H47.2054C48.0117 61.3199 48.6654 60.6662 48.6654 59.8599C48.6654 59.0536 48.0117 58.3999 47.2054 58.3999Z" fill="#FF5151"/>
</svg>
