<svg width="119" height="120" viewBox="0 0 119 120" fill="none" xmlns="http://www.w3.org/2000/svg">
<path d="M97.2518 48.6269C97.2518 71.5041 78.7062 90.0497 55.829 90.0497C32.9519 90.0497 14.4062 71.5041 14.4062 48.6269C14.4062 25.7497 32.9519 7.2041 55.829 7.2041C78.7062 7.2041 97.2518 25.7497 97.2518 48.6269ZM18.2794 48.6269C18.2794 69.365 35.091 86.1765 55.829 86.1765C76.5671 86.1765 93.3786 69.365 93.3786 48.6269C93.3786 27.8888 76.5671 11.0773 55.829 11.0773C35.091 11.0773 18.2794 27.8888 18.2794 48.6269Z" fill="#FF3B3B"/>
<path d="M72.1628 36.4345C69.2632 36.1464 66.3636 35.9303 63.446 35.7682V35.7502L63.0498 33.4089C62.7796 31.752 62.3834 29.2666 58.1691 29.2666H53.4505C49.2542 29.2666 48.858 31.6439 48.5698 33.3909L48.1916 35.6961C46.5167 35.8042 44.8418 35.9123 43.1669 36.0743L39.4928 36.4345C38.7364 36.5066 38.1961 37.173 38.2682 37.9114C38.3402 38.6498 38.9886 39.1901 39.745 39.118L43.419 38.7578C52.8562 37.8213 62.3654 38.1815 71.9107 39.136C71.9647 39.136 72.0007 39.136 72.0547 39.136C72.7391 39.136 73.3334 38.6137 73.4055 37.9114C73.4595 37.173 72.9192 36.5066 72.1628 36.4345Z" fill="#FF3B3B"/>
<path d="M68.8497 41.675C68.4175 41.2248 67.8231 40.9727 67.2108 40.9727H44.4463C43.8339 40.9727 43.2216 41.2248 42.8074 41.675C42.3931 42.1253 42.159 42.7376 42.195 43.368L43.3117 61.8461C43.5098 64.5836 43.7619 68.0055 50.0474 68.0055H61.6097C67.8952 68.0055 68.1473 64.6017 68.3454 61.8461L69.462 43.386C69.4981 42.7376 69.2639 42.1253 68.8497 41.675ZM58.8182 58.9826H52.8209C52.0825 58.9826 51.4701 58.3702 51.4701 57.6318C51.4701 56.8934 52.0825 56.2811 52.8209 56.2811H58.8182C59.5566 56.2811 60.1689 56.8934 60.1689 57.6318C60.1689 58.3702 59.5566 58.9826 58.8182 58.9826ZM60.331 51.7786H51.3261C50.5877 51.7786 49.9753 51.1663 49.9753 50.4279C49.9753 49.6895 50.5877 49.0771 51.3261 49.0771H60.331C61.0694 49.0771 61.6818 49.6895 61.6818 50.4279C61.6818 51.1663 61.0694 51.7786 60.331 51.7786Z" fill="#FF3B3B"/>
<circle cx="7.20396" cy="7.20396" r="7.20396" fill="#FF3B3B" fill-opacity="0.2"/>
<circle cx="106.824" cy="92.4177" r="11.3733" fill="#FF3B3B" fill-opacity="0.2"/>
<circle cx="87.0154" cy="112.229" r="7.77127" fill="#FF3B3B" fill-opacity="0.1"/>
</svg>
