<svg width="60" height="60" viewBox="0 0 60 60" fill="none" xmlns="http://www.w3.org/2000/svg">
<path opacity="0.4" d="M52.5 17.5V42.5C52.5 50 48.75 55 40 55H20C11.25 55 7.5 50 7.5 42.5V17.5C7.5 10 11.25 5 20 5H40C48.75 5 52.5 10 52.5 17.5Z" fill="#3A6FE6"/>
<path d="M46.25 23.125H41.25C37.45 23.125 34.375 20.05 34.375 16.25V11.25C34.375 10.225 35.225 9.375 36.25 9.375C37.275 9.375 38.125 10.225 38.125 11.25V16.25C38.125 17.975 39.525 19.375 41.25 19.375H46.25C47.275 19.375 48.125 20.225 48.125 21.25C48.125 22.275 47.275 23.125 46.25 23.125Z" fill="#3A6FE6"/>
<path d="M30 34.375H20C18.975 34.375 18.125 33.525 18.125 32.5C18.125 31.475 18.975 30.625 20 30.625H30C31.025 30.625 31.875 31.475 31.875 32.5C31.875 33.525 31.025 34.375 30 34.375Z" fill="#3A6FE6"/>
<path d="M40 44.375H20C18.975 44.375 18.125 43.525 18.125 42.5C18.125 41.475 18.975 40.625 20 40.625H40C41.025 40.625 41.875 41.475 41.875 42.5C41.875 43.525 41.025 44.375 40 44.375Z" fill="#3A6FE6"/>
</svg>
