<svg width="196" height="164" viewBox="0 0 196 164" fill="none" xmlns="http://www.w3.org/2000/svg">
<path d="M122.641 2.12342C96.9573 -1.19121 75.9069 11.4326 53.2414 32.6839C34.8488 49.9153 4.97839 51.0515 3.21439 78.5246C1.07407 111.969 56.6283 114.656 72.9904 130.822C116.487 173.92 172.801 168.208 187.352 128.644C200.312 93.4287 179.215 77.0279 171.774 54.3662C161.01 21.6978 149.744 5.61829 122.641 2.12342Z" fill="#D8EDFF"/>
<path d="M86.6163 101.32L61.199 133.134C59.8361 134.827 57.8584 135.912 55.6978 136.153C53.5371 136.394 51.3689 135.77 49.6664 134.419V134.419C47.971 133.057 46.8834 131.079 46.6411 128.918C46.3988 126.757 47.0213 124.588 48.3728 122.885L73.7901 91.0781" fill="white"/>
<path d="M109.031 113.998C132.079 113.998 150.763 95.3237 150.763 72.2873C150.763 49.2509 132.079 30.5762 109.031 30.5762C85.9828 30.5762 67.2986 49.2509 67.2986 72.2873C67.2986 95.3237 85.9828 113.998 109.031 113.998Z" fill="white"/>
<path d="M90.403 108.975L64.9936 140.782C63.6304 142.477 61.6512 143.564 59.4887 143.805C57.3261 144.045 55.1561 143.421 53.4531 142.067V142.067C51.7571 140.704 50.6697 138.726 50.4288 136.565C50.1879 134.403 50.8129 132.234 52.1674 130.532L79.3408 96.4221" fill="white"/>
<path d="M72.2691 36.461C66.0954 44.1613 62.7214 53.729 62.6999 63.5966C62.6785 73.4642 66.0109 83.0465 72.1511 90.7735C78.2913 98.5004 86.8751 103.914 96.4963 106.127C106.117 108.34 116.205 107.221 125.107 102.954C134.009 98.6865 141.197 91.5239 145.493 82.6395C149.789 73.7551 150.938 63.6757 148.753 54.0529C146.568 44.43 141.177 35.8343 133.465 29.6741C125.752 23.5139 116.175 20.1546 106.303 20.1464C99.7647 20.1166 93.3052 21.5692 87.4102 24.3951C81.5152 27.221 76.3383 31.3464 72.2691 36.461V36.461ZM106.303 23.704C115.348 23.7192 124.12 26.8035 131.182 32.4518C138.245 38.1002 143.179 45.9778 145.178 54.7949C147.176 63.6121 146.12 72.8462 142.183 80.9852C138.246 89.1243 131.66 95.686 123.505 99.596C115.349 103.506 106.107 104.533 97.2917 102.508C88.4764 100.483 80.6101 95.5262 74.981 88.4497C69.3518 81.3732 66.2933 72.5962 66.3062 63.5556C66.3192 54.5151 69.4029 45.7468 75.0523 38.6865C78.8028 34.0057 83.5591 30.2285 88.9688 27.635C94.3784 25.0414 100.303 23.6979 106.303 23.704V23.704Z" fill="#165083"/>
<path d="M54.7624 137.553C52.9661 137.546 51.2083 137.032 49.6903 136.072C48.1723 135.112 46.9555 133.745 46.1791 132.125C45.4027 130.506 45.0981 128.702 45.3003 126.918C45.5025 125.134 46.2032 123.443 47.3222 122.038L72.7317 90.2317L74.8485 91.9164L49.4312 123.731C48.3409 125.155 47.8524 126.95 48.0705 128.73C48.2886 130.51 49.196 132.134 50.598 133.254C52.0001 134.373 53.7852 134.899 55.5705 134.718C57.3559 134.538 58.9993 133.665 60.1485 132.288L85.5579 100.481L87.6747 102.166L62.2574 133.996C61.4742 134.978 60.5043 135.795 59.4036 136.4C58.3029 137.005 57.0932 137.386 55.8443 137.522C55.4845 137.552 55.1233 137.562 54.7624 137.553Z" fill="#165083"/>
<path d="M102.457 61.8889L90.3353 71.5188L92.4379 74.1627L104.559 64.5328L102.457 61.8889Z" fill="#165083"/>
<path d="M92.4385 61.8861L90.3364 64.5303L102.459 74.1581L104.561 71.5138L92.4385 61.8861Z" fill="#165083"/>
<path d="M102.602 93.2487C102.18 93.2478 101.768 93.1153 101.425 92.8697C101.082 92.6241 100.823 92.2775 100.686 91.8784C100.549 91.4792 100.54 91.0472 100.66 90.6426C100.78 90.2379 101.023 89.8807 101.356 89.6206C104.575 87.1807 108.49 85.8334 112.53 85.7756C116.569 85.7178 120.522 86.9525 123.809 89.2994C124.188 89.6304 124.43 90.0909 124.488 90.5908C124.545 91.0907 124.414 91.5941 124.12 92.0025C123.826 92.411 123.391 92.6952 122.898 92.7996C122.406 92.904 121.892 92.821 121.457 92.567C118.941 90.7729 115.924 89.8136 112.833 89.8244C109.602 89.8052 106.456 90.858 103.888 92.8177C103.522 93.105 103.068 93.2572 102.602 93.2487V93.2487Z" fill="#165083"/>
<path d="M132.601 61.8928L120.48 71.5227L122.582 74.1666L134.704 64.5367L132.601 61.8928Z" fill="#165083"/>
<path d="M122.583 61.8831L120.481 64.5273L132.604 74.1551L134.706 71.5109L122.583 61.8831Z" fill="#165083"/>
<path d="M85.7618 56.1529C85.3905 56.1517 85.0267 56.0488 84.7098 55.8553C84.393 55.6619 84.1353 55.3853 83.9648 55.0557C83.7942 54.7261 83.7174 54.356 83.7425 53.9858C83.7677 53.6156 83.8939 53.2594 84.1075 52.9558C84.523 52.3681 84.9464 51.7961 85.4011 51.2319C91.2094 43.9398 99.661 39.2318 108.921 38.1301C109.185 38.0977 109.453 38.1176 109.709 38.1886C109.966 38.2597 110.206 38.3805 110.415 38.5443C110.625 38.708 110.8 38.9114 110.931 39.1428C111.062 39.3743 111.147 39.6292 111.179 39.8932C111.211 40.1571 111.192 40.4249 111.12 40.6812C111.049 40.9374 110.928 41.1772 110.765 41.3867C110.601 41.5963 110.397 41.7716 110.166 41.9025C109.934 42.0335 109.679 42.1176 109.415 42.15C101.215 43.1356 93.7338 47.3107 88.592 53.7708C88.1922 54.2644 87.808 54.7738 87.4474 55.291C87.2581 55.5612 87.0055 55.781 86.7117 55.9312C86.4179 56.0815 86.0918 56.1576 85.7618 56.1529V56.1529Z" fill="white"/>
</svg>
