<svg width="73" height="73" viewBox="0 0 73 73" fill="none" xmlns="http://www.w3.org/2000/svg">
<path d="M36.5 73C56.6584 73 73 56.6584 73 36.5C73 16.3416 56.6584 0 36.5 0C16.3416 0 0 16.3416 0 36.5C0 56.6584 16.3416 73 36.5 73Z" fill="#9CDAA6"/>
<path d="M58.3996 73.0002H14.5996V25.7935C16.6641 25.7912 18.6433 24.9701 20.1031 23.5103C21.5628 22.0505 22.384 20.0713 22.3863 18.0068H50.6129C50.6108 19.0295 50.8114 20.0425 51.2033 20.9871C51.5951 21.9317 52.1704 22.7892 52.8959 23.5101C53.6167 24.2357 54.4743 24.8112 55.419 25.2032C56.3637 25.5951 57.3768 25.7958 58.3996 25.7935V73.0002Z" fill="#E3FFE8"/>
<path d="M36.4984 49.6403C42.949 49.6403 48.1784 44.411 48.1784 37.9603C48.1784 31.5096 42.949 26.2803 36.4984 26.2803C30.0477 26.2803 24.8184 31.5096 24.8184 37.9603C24.8184 44.411 30.0477 49.6403 36.4984 49.6403Z" fill="#558F60"/>
<path d="M41.7137 33.8928L34.5441 41.7143L31.2852 38.1591" stroke="white" stroke-width="1.5" stroke-linecap="round" stroke-linejoin="round"/>
<path d="M42.8282 52.5598H30.1748C29.3685 52.5598 28.7148 53.2135 28.7148 54.0198C28.7148 54.8262 29.3685 55.4798 30.1748 55.4798H42.8282C43.6345 55.4798 44.2882 54.8262 44.2882 54.0198C44.2882 53.2135 43.6345 52.5598 42.8282 52.5598Z" fill="#66B075"/>
<path d="M47.2054 58.3997H25.792C24.9857 58.3997 24.332 59.0533 24.332 59.8597C24.332 60.666 24.9857 61.3197 25.792 61.3197H47.2054C48.0117 61.3197 48.6654 60.666 48.6654 59.8597C48.6654 59.0533 48.0117 58.3997 47.2054 58.3997Z" fill="#66B075"/>
</svg>
