<svg width="56" height="56" viewBox="0 0 56 56" fill="none" xmlns="http://www.w3.org/2000/svg">
<path d="M28 56C43.464 56 56 43.464 56 28C56 12.536 43.464 0 28 0C12.536 0 0 12.536 0 28C0 43.464 12.536 56 28 56Z" fill="#9CDAA6"/>
<path d="M44.8002 56.0001H11.2002V19.7868C12.7839 19.785 14.3022 19.1551 15.422 18.0353C16.5418 16.9155 17.1717 15.3972 17.1735 13.8135H38.8269C38.8252 14.598 38.9791 15.375 39.2797 16.0997C39.5803 16.8243 40.0217 17.4822 40.5782 18.0351C41.1311 18.5918 41.789 19.0333 42.5137 19.334C43.2384 19.6346 44.0156 19.7885 44.8002 19.7868V56.0001Z" fill="#E3FFE8"/>
<path d="M28 38.0802C32.9485 38.0802 36.96 34.0686 36.96 29.1202C36.96 24.1717 32.9485 20.1602 28 20.1602C23.0516 20.1602 19.04 24.1717 19.04 29.1202C19.04 34.0686 23.0516 38.0802 28 38.0802Z" fill="#558F60"/>
<path d="M32 26L26.5 32L24 29.2727" stroke="white" stroke-width="1.5" stroke-linecap="round" stroke-linejoin="round"/>
<path d="M32.8535 40.3203H23.1469C22.5283 40.3203 22.0269 40.8218 22.0269 41.4403C22.0269 42.0589 22.5283 42.5603 23.1469 42.5603H32.8535C33.4721 42.5603 33.9735 42.0589 33.9735 41.4403C33.9735 40.8218 33.4721 40.3203 32.8535 40.3203Z" fill="#66B075"/>
<path d="M36.2132 44.7998H19.7865C19.1679 44.7998 18.6665 45.3012 18.6665 45.9198C18.6665 46.5384 19.1679 47.0398 19.7865 47.0398H36.2132C36.8317 47.0398 37.3332 46.5384 37.3332 45.9198C37.3332 45.3012 36.8317 44.7998 36.2132 44.7998Z" fill="#66B075"/>
</svg>
