<svg width="66" height="67" viewBox="0 0 66 67" fill="none" xmlns="http://www.w3.org/2000/svg">
<path d="M54 27C54 39.7025 43.7025 50 31 50C18.2975 50 8 39.7025 8 27C8 14.2975 18.2975 4 31 4C43.7025 4 54 14.2975 54 27ZM10.1506 27C10.1506 38.5148 19.4852 47.8494 31 47.8494C42.5148 47.8494 51.8494 38.5148 51.8494 27C51.8494 15.4852 42.5148 6.15058 31 6.15058C19.4852 6.15058 10.1506 15.4852 10.1506 27Z" fill="#FF3B3B"/>
<path d="M40.0699 20.23C38.4599 20.07 36.8499 19.95 35.2299 19.86V19.85L35.0099 18.55C34.8599 17.63 34.6399 16.25 32.2999 16.25H29.6799C27.3499 16.25 27.1299 17.57 26.9699 18.54L26.7599 19.82C25.8299 19.88 24.8999 19.94 23.9699 20.03L21.9299 20.23C21.5099 20.27 21.2099 20.64 21.2499 21.05C21.2899 21.46 21.6499 21.76 22.0699 21.72L24.1099 21.52C29.3499 21 34.6299 21.2 39.9299 21.73C39.9599 21.73 39.9799 21.73 40.0099 21.73C40.3899 21.73 40.7199 21.44 40.7599 21.05C40.7899 20.64 40.4899 20.27 40.0699 20.23Z" fill="#FF3B3B"/>
<path d="M38.23 23.14C37.99 22.89 37.66 22.75 37.32 22.75H24.68C24.34 22.75 24 22.89 23.77 23.14C23.54 23.39 23.41 23.73 23.43 24.08L24.05 34.34C24.16 35.86 24.3 37.76 27.79 37.76H34.21C37.7 37.76 37.84 35.87 37.95 34.34L38.57 24.09C38.59 23.73 38.46 23.39 38.23 23.14ZM32.66 32.75H29.33C28.92 32.75 28.58 32.41 28.58 32C28.58 31.59 28.92 31.25 29.33 31.25H32.66C33.07 31.25 33.41 31.59 33.41 32C33.41 32.41 33.07 32.75 32.66 32.75ZM33.5 28.75H28.5C28.09 28.75 27.75 28.41 27.75 28C27.75 27.59 28.09 27.25 28.5 27.25H33.5C33.91 27.25 34.25 27.59 34.25 28C34.25 28.41 33.91 28.75 33.5 28.75Z" fill="#FF3B3B"/>
<circle cx="4" cy="4" r="4" fill="#FF3B3B" fill-opacity="0.2"/>
<circle cx="59.315" cy="51.315" r="6.315" fill="#FF3B3B" fill-opacity="0.2"/>
<circle cx="48.315" cy="62.315" r="4.315" fill="#FF3B3B" fill-opacity="0.1"/>
</svg>
