<svg width="20" height="20" viewBox="0 0 20 20" fill="none" xmlns="http://www.w3.org/2000/svg">
<path d="M17.5 18.3334H2.5C2.15833 18.3334 1.875 18.05 1.875 17.7084C1.875 17.3667 2.15833 17.0834 2.5 17.0834H17.5C17.8417 17.0834 18.125 17.3667 18.125 17.7084C18.125 18.05 17.8417 18.3334 17.5 18.3334Z" fill="#DFB00B"/>
<path d="M15.85 2.90005C14.2333 1.28338 12.65 1.24172 10.9916 2.90005L9.98331 3.90838C9.89998 3.99172 9.86665 4.12505 9.89998 4.24172C10.5333 6.45005 12.3 8.21672 14.5083 8.85005C14.5416 8.85838 14.575 8.86672 14.6083 8.86672C14.7 8.86672 14.7833 8.83338 14.85 8.76672L15.85 7.75838C16.675 6.94172 17.075 6.15005 17.075 5.35005C17.0833 4.52505 16.6833 3.72505 15.85 2.90005Z" fill="#DFB00B"/>
<path d="M13.0083 9.60829C12.7666 9.49163 12.5333 9.37496 12.3083 9.24163C12.125 9.13329 11.95 9.01663 11.775 8.89163C11.6333 8.79996 11.4666 8.66663 11.3083 8.53329C11.2916 8.52496 11.2333 8.47496 11.1666 8.40829C10.8916 8.17496 10.5833 7.87496 10.3083 7.54163C10.2833 7.52496 10.2416 7.46663 10.1833 7.39163C10.1 7.29163 9.95831 7.12496 9.83331 6.93329C9.73331 6.80829 9.61665 6.62496 9.50831 6.44163C9.37498 6.21663 9.25831 5.99163 9.14165 5.75829C8.98868 5.43051 8.55847 5.33314 8.3027 5.58891L3.61665 10.275C3.50831 10.3833 3.40831 10.5916 3.38331 10.7333L2.93331 13.925C2.84998 14.4916 3.00831 15.025 3.35831 15.3833C3.65831 15.675 4.07498 15.8333 4.52498 15.8333C4.62498 15.8333 4.72498 15.825 4.82498 15.8083L8.02498 15.3583C8.17498 15.3333 8.38331 15.2333 8.48331 15.125L13.1771 10.4312C13.4278 10.1805 13.3336 9.74924 13.0083 9.60829Z" fill="#DFB00B"/>
</svg>
