<svg width="24" height="30" viewBox="0 0 24 30" fill="none" xmlns="http://www.w3.org/2000/svg">
<path d="M14.4244 0H4.5C3.50544 0 2.55161 0.395088 1.84835 1.09835C1.14509 1.80161 0.75 2.75544 0.75 3.75V26.25C0.75 27.2446 1.14509 28.1984 1.84835 28.9016C2.55161 29.6049 3.50544 30 4.5 30H19.5C20.4946 30 21.4484 29.6049 22.1516 28.9016C22.8549 28.1984 23.25 27.2446 23.25 26.25V8.82562C23.2499 8.32838 23.0523 7.85155 22.7006 7.5L15.75 0.549375C15.3985 0.19772 14.9216 0.000106195 14.4244 0ZM14.8125 6.5625V2.8125L20.4375 8.4375H16.6875C16.1902 8.4375 15.7133 8.23996 15.3617 7.88832C15.01 7.53669 14.8125 7.05978 14.8125 6.5625ZM2.625 16.875H21.375V18.75H15.75V22.5H21.375V24.375H15.75V28.125H13.875V24.375H8.25V28.125H6.375V24.375H2.625V22.5H6.375V18.75H2.625V16.875Z" fill="#C7C7C7"/>
</svg>
