<svg width="25" height="24" viewBox="0 0 25 24" fill="none" xmlns="http://www.w3.org/2000/svg">
<path d="M20.915 6.82006L15.155 2.79006C13.585 1.69006 11.175 1.75006 9.66499 2.92006L4.65499 6.83006C3.65499 7.61006 2.86499 9.21006 2.86499 10.4701V17.3701C2.86499 19.9201 4.93499 22.0001 7.48499 22.0001H18.265C20.815 22.0001 22.885 19.9301 22.885 17.3801V10.6001C22.885 9.25006 22.015 7.59006 20.915 6.82006ZM13.625 18.0001C13.625 18.4101 13.285 18.7501 12.875 18.7501C12.465 18.7501 12.125 18.4101 12.125 18.0001V15.0001C12.125 14.5901 12.465 14.2501 12.875 14.2501C13.285 14.2501 13.625 14.5901 13.625 15.0001V18.0001Z" fill="#C7C7C7"/>
</svg>
