<svg width="16" height="16" viewBox="0 0 16 16" fill="none" xmlns="http://www.w3.org/2000/svg">
<path d="M13.7467 5.63329C13.0467 2.55329 10.36 1.16663 8 1.16663C8 1.16663 8 1.16663 7.99334 1.16663C5.64 1.16663 2.94667 2.54663 2.24667 5.62663C1.46667 9.06663 3.57334 11.98 5.48 13.8133C6.18667 14.4933 7.09334 14.8333 8 14.8333C8.90667 14.8333 9.81334 14.4933 10.5133 13.8133C12.42 11.98 14.5267 9.07329 13.7467 5.63329ZM8 8.97329C6.84 8.97329 5.9 8.03329 5.9 6.87329C5.9 5.71329 6.84 4.77329 8 4.77329C9.16 4.77329 10.1 5.71329 10.1 6.87329C10.1 8.03329 9.16 8.97329 8 8.97329Z" fill="#1487C0"/>
</svg>
