<svg width="65" height="66" viewBox="0 0 65 66" fill="none" xmlns="http://www.w3.org/2000/svg">
<path d="M55.4627 26.7444C55.4627 39.3269 45.2641 49.527 32.6835 49.527C20.1029 49.527 9.9043 39.3269 9.9043 26.7444C9.9043 14.162 20.1029 3.96191 32.6835 3.96191C45.2641 3.96191 55.4627 14.162 55.4627 26.7444ZM12.0342 26.7444C12.0342 38.1504 21.2792 47.3967 32.6835 47.3967C44.0878 47.3967 53.3328 38.1504 53.3328 26.7444C53.3328 15.3385 44.0878 6.09216 32.6835 6.09216C21.2792 6.09216 12.0342 15.3385 12.0342 26.7444Z" fill="#FF3B3B"/>
<path d="M36.4478 16.8389H33.8727C30.7035 16.8389 28.7227 18.82 28.7227 21.9897V26.0014H34.9127C35.3187 26.0014 35.6555 26.3382 35.6555 26.7443C35.6555 27.1504 35.3187 27.4872 34.9127 27.4872H28.7227V31.4989C28.7227 34.6687 30.7035 36.6498 33.8727 36.6498H36.4379C39.6072 36.6498 41.588 34.6687 41.588 31.4989V21.9897C41.5979 18.82 39.6171 16.8389 36.4478 16.8389Z" fill="#FF3B3B"/>
<path d="M24.3249 26.0014L26.3751 23.951C26.5236 23.8024 26.593 23.6142 26.593 23.426C26.593 23.2378 26.5236 23.0397 26.3751 22.901C26.0879 22.6137 25.6125 22.6137 25.3252 22.901L22.0074 26.2193C21.7202 26.5066 21.7202 26.982 22.0074 27.2693L25.3252 30.5876C25.6125 30.8749 26.0879 30.8749 26.3751 30.5876C26.6623 30.3004 26.6623 29.8249 26.3751 29.5376L24.3249 27.4872H28.7223V26.0014H24.3249Z" fill="#FF3B3B"/>
<ellipse cx="3.9616" cy="3.96218" rx="3.9616" ry="3.96218" fill="#FF3B3B" fill-opacity="0.2"/>
<ellipse cx="58.7456" cy="50.8295" rx="6.25438" ry="6.25529" fill="#FF3B3B" fill-opacity="0.2"/>
<ellipse cx="47.8507" cy="61.7254" rx="4.27358" ry="4.2742" fill="#FF3B3B" fill-opacity="0.1"/>
</svg>
