<svg width="74" height="56" viewBox="0 0 74 56" fill="none" xmlns="http://www.w3.org/2000/svg">
<path d="M28.1768 56C43.7384 56 56.3536 43.464 56.3536 28C56.3536 12.536 43.7384 0 28.1768 0C12.6152 0 0 12.536 0 28C0 43.464 12.6152 56 28.1768 56Z" fill="#FFF1AB"/>
<g filter="url(#filter0_d_313_8843)">
<path d="M15.4034 12.6934H66.1216C66.6198 12.6934 67.0976 12.89 67.4499 13.2401C67.8021 13.5902 68 14.065 68 14.56V23.8934C68 24.3884 67.8021 24.8632 67.4499 25.2133C67.0976 25.5634 66.6198 25.76 66.1216 25.76H15.4034C14.9052 25.76 14.4274 25.5634 14.0751 25.2133C13.7228 24.8632 13.5249 24.3884 13.5249 23.8934V14.56C13.5249 14.065 13.7228 13.5902 14.0751 13.2401C14.4274 12.89 14.9052 12.6934 15.4034 12.6934V12.6934Z" fill="#FCF9ED"/>
</g>
<path d="M39.4473 15.6797H29.6793C29.0569 15.6797 28.5522 16.1811 28.5522 16.7997C28.5522 17.4182 29.0569 17.9197 29.6793 17.9197H39.4473C40.0697 17.9197 40.5743 17.4182 40.5743 16.7997C40.5743 16.1811 40.0697 15.6797 39.4473 15.6797Z" fill="#FDEDA2"/>
<path d="M46.2097 20.5332H29.6793C29.0569 20.5332 28.5522 21.0346 28.5522 21.6532C28.5522 22.2718 29.0569 22.7732 29.6793 22.7732H46.2097C46.8322 22.7732 47.3368 22.2718 47.3368 21.6532C47.3368 21.0346 46.8322 20.5332 46.2097 20.5332Z" fill="#FFF3C3"/>
<path d="M25.5469 19.2268C25.5469 16.2371 23.1079 13.8135 20.0994 13.8135C17.0908 13.8135 14.6519 16.2371 14.6519 19.2268C14.6519 22.2165 17.0908 24.6401 20.0994 24.6401C23.1079 24.6401 25.5469 22.2165 25.5469 19.2268Z" fill="#DFBD0B"/>
<path d="M19.7616 20.9795C20.228 20.9795 20.6809 20.8244 21.0483 20.539L22.2036 21.687L22.5751 21.3178L21.4195 20.1694C21.7099 19.7964 21.8645 19.3366 21.8582 18.8651C21.852 18.3935 21.6852 17.938 21.385 17.5727C21.0849 17.2074 20.6691 16.9539 20.2054 16.8535C19.7417 16.7531 19.2575 16.8117 18.8316 17.0198C18.4057 17.2279 18.0634 17.5732 17.8603 17.9994C17.6572 18.4257 17.6053 18.9077 17.7132 19.3669C17.821 19.8262 18.0822 20.2356 18.4542 20.5284C18.8262 20.8213 19.287 20.9803 19.7616 20.9795ZM19.7616 17.3231C20.0737 17.3231 20.3787 17.4151 20.6382 17.5874C20.8977 17.7597 21.1 18.0045 21.2194 18.2911C21.3388 18.5776 21.3701 18.8928 21.3092 19.197C21.2483 19.5012 21.098 19.7806 20.8773 19.9998C20.6567 20.2191 20.3755 20.3685 20.0694 20.429C19.7633 20.4895 19.4461 20.4584 19.1578 20.3397C18.8694 20.2211 18.623 20.0201 18.4496 19.7622C18.2762 19.5044 18.1837 19.2012 18.1837 18.8911C18.1837 18.4752 18.3499 18.0764 18.6459 17.7824C18.9418 17.4883 19.3431 17.3231 19.7616 17.3231Z" fill="#FCF9ED"/>
<g filter="url(#filter1_d_313_8843)">
<path d="M60.4863 29.4932H9.7681C8.73066 29.4932 7.88965 30.3289 7.88965 31.3598V40.6932C7.88965 41.7241 8.73066 42.5598 9.7681 42.5598H60.4863C61.5238 42.5598 62.3648 41.7241 62.3648 40.6932V31.3598C62.3648 30.3289 61.5238 29.4932 60.4863 29.4932Z" fill="#FCF9ED"/>
</g>
<path d="M33.8125 32.4795H24.0446C23.4221 32.4795 22.9175 32.9809 22.9175 33.5995C22.9175 34.2181 23.4221 34.7195 24.0446 34.7195H33.8125C34.435 34.7195 34.9396 34.2181 34.9396 33.5995C34.9396 32.9809 34.435 32.4795 33.8125 32.4795Z" fill="#FDEDA2"/>
<path d="M40.5749 37.333H24.0446C23.4221 37.333 22.9175 37.8344 22.9175 38.453C22.9175 39.0716 23.4221 39.573 24.0446 39.573H40.5749C41.1974 39.573 41.702 39.0716 41.702 38.453C41.702 37.8344 41.1974 37.333 40.5749 37.333Z" fill="#FFF3C3"/>
<path d="M19.9121 36.0266C19.9121 33.0369 17.4732 30.6133 14.4646 30.6133C11.456 30.6133 9.01709 33.0369 9.01709 36.0266C9.01709 39.0163 11.456 41.4399 14.4646 41.4399C17.4732 41.4399 19.9121 39.0163 19.9121 36.0266Z" fill="#DFBD0B"/>
<path d="M14.1263 37.7793C14.5927 37.7793 15.0456 37.6242 15.4131 37.3388L16.5683 38.4868L16.9399 38.1176L15.7843 36.9692C16.0746 36.5962 16.2293 36.1364 16.223 35.6649C16.2167 35.1933 16.0499 34.7378 15.7498 34.3725C15.4496 34.0072 15.0338 33.7537 14.5701 33.6533C14.1065 33.5529 13.6222 33.6115 13.1964 33.8196C12.7705 34.0277 12.4281 34.373 12.225 34.7992C12.0219 35.2255 11.9701 35.7075 12.0779 36.1667C12.1858 36.626 12.447 37.0354 12.819 37.3282C13.1909 37.6211 13.6518 37.7801 14.1263 37.7793ZM14.1263 34.1229C14.4384 34.1229 14.7435 34.2149 15.003 34.3872C15.2625 34.5595 15.4647 34.8043 15.5841 35.0909C15.7036 35.3774 15.7348 35.6926 15.6739 35.9968C15.613 36.301 15.4628 36.5804 15.2421 36.7997C15.0214 37.0189 14.7403 37.1683 14.4342 37.2288C14.1281 37.2893 13.8108 37.2582 13.5225 37.1396C13.2342 37.0209 12.9877 36.8199 12.8144 36.562C12.641 36.3042 12.5484 36.001 12.5484 35.6909C12.5484 35.275 12.7147 34.8762 13.0106 34.5822C13.3065 34.2881 13.7079 34.1229 14.1263 34.1229Z" fill="#FCF9ED"/>
<defs>
<filter id="filter0_d_313_8843" x="7.5249" y="9.69336" width="66.4751" height="25.0664" filterUnits="userSpaceOnUse" color-interpolation-filters="sRGB">
<feFlood flood-opacity="0" result="BackgroundImageFix"/>
<feColorMatrix in="SourceAlpha" type="matrix" values="0 0 0 0 0 0 0 0 0 0 0 0 0 0 0 0 0 0 127 0" result="hardAlpha"/>
<feOffset dy="3"/>
<feGaussianBlur stdDeviation="3"/>
<feColorMatrix type="matrix" values="0 0 0 0 0 0 0 0 0 0 0 0 0 0 0 0 0 0 0.161 0"/>
<feBlend mode="normal" in2="BackgroundImageFix" result="effect1_dropShadow_313_8843"/>
<feBlend mode="normal" in="SourceGraphic" in2="effect1_dropShadow_313_8843" result="shape"/>
</filter>
<filter id="filter1_d_313_8843" x="1.88965" y="26.4932" width="66.4751" height="25.0664" filterUnits="userSpaceOnUse" color-interpolation-filters="sRGB">
<feFlood flood-opacity="0" result="BackgroundImageFix"/>
<feColorMatrix in="SourceAlpha" type="matrix" values="0 0 0 0 0 0 0 0 0 0 0 0 0 0 0 0 0 0 127 0" result="hardAlpha"/>
<feOffset dy="3"/>
<feGaussianBlur stdDeviation="3"/>
<feColorMatrix type="matrix" values="0 0 0 0 0 0 0 0 0 0 0 0 0 0 0 0 0 0 0.161 0"/>
<feBlend mode="normal" in2="BackgroundImageFix" result="effect1_dropShadow_313_8843"/>
<feBlend mode="normal" in="SourceGraphic" in2="effect1_dropShadow_313_8843" result="shape"/>
</filter>
</defs>
</svg>
