<svg width="16" height="16" viewBox="0 0 16 16" fill="none" xmlns="http://www.w3.org/2000/svg">
<path d="M5.92 3.06661C5.38666 0.759941 1.91333 0.753274 1.38 3.06661C1.06666 4.41994 1.92666 5.56661 2.67333 6.27994C3.22 6.79327 4.08 6.79327 4.62666 6.27994C5.37333 5.56661 6.22666 4.41994 5.92 3.06661ZM3.67333 4.13327C3.30666 4.13327 3.00666 3.83327 3.00666 3.46661C3.00666 3.09994 3.3 2.79994 3.66666 2.79994H3.67333C4.04666 2.79994 4.34 3.09994 4.34 3.46661C4.34 3.83327 4.04666 4.13327 3.67333 4.13327Z" fill="#1487C0"/>
<path d="M14.6067 11.0666C14.0733 8.75994 10.5867 8.75327 10.0467 11.0666C9.73333 12.4199 10.5933 13.5666 11.3467 14.2799C11.8933 14.7933 12.76 14.7933 13.3067 14.2799C14.06 13.5666 14.92 12.4199 14.6067 11.0666ZM12.3533 12.1333C11.9867 12.1333 11.6867 11.8333 11.6867 11.4666C11.6867 11.0999 11.98 10.7999 12.3467 10.7999H12.3533C12.72 10.7999 13.02 11.0999 13.02 11.4666C13.02 11.8333 12.72 12.1333 12.3533 12.1333Z" fill="#1487C0"/>
<path d="M7.99997 13.1667H6.2133C5.43997 13.1667 4.76664 12.7 4.49997 11.98C4.22664 11.26 4.42664 10.4667 5.00664 9.95337L10.3333 5.29337C10.6533 5.01337 10.66 4.63337 10.5666 4.37337C10.4666 4.11337 10.2133 3.83337 9.78664 3.83337H7.99997C7.72664 3.83337 7.49997 3.60671 7.49997 3.33337C7.49997 3.06004 7.72664 2.83337 7.99997 2.83337H9.78664C10.56 2.83337 11.2333 3.30004 11.5 4.02004C11.7733 4.74004 11.5733 5.53337 10.9933 6.04671L5.66664 10.7067C5.34664 10.9867 5.33997 11.3667 5.4333 11.6267C5.5333 11.8867 5.78664 12.1667 6.2133 12.1667H7.99997C8.2733 12.1667 8.49997 12.3934 8.49997 12.6667C8.49997 12.94 8.2733 13.1667 7.99997 13.1667Z" fill="#1487C0"/>
</svg>
