<svg width="25" height="24" viewBox="0 0 25 24" fill="none" xmlns="http://www.w3.org/2000/svg">
<path d="M14.975 2H10.275C9.235 2 8.385 2.84 8.385 3.88V4.82C8.385 5.86 9.225 6.7 10.265 6.7H14.975C16.015 6.7 16.855 5.86 16.855 4.82V3.88C16.865 2.84 16.015 2 14.975 2Z" fill="#C7C7C7"/>
<path d="M17.865 4.81998C17.865 6.40998 16.565 7.70998 14.975 7.70998H10.275C8.685 7.70998 7.385 6.40998 7.385 4.81998C7.385 4.25998 6.785 3.90998 6.285 4.16998C4.875 4.91998 3.915 6.40998 3.915 8.11998V17.53C3.915 19.99 5.925 22 8.385 22H16.865C19.325 22 21.335 19.99 21.335 17.53V8.11998C21.335 6.40998 20.375 4.91998 18.965 4.16998C18.465 3.90998 17.865 4.25998 17.865 4.81998ZM13.005 16.95H8.625C8.215 16.95 7.875 16.61 7.875 16.2C7.875 15.79 8.215 15.45 8.625 15.45H13.005C13.415 15.45 13.755 15.79 13.755 16.2C13.755 16.61 13.415 16.95 13.005 16.95ZM15.625 12.95H8.625C8.215 12.95 7.875 12.61 7.875 12.2C7.875 11.79 8.215 11.45 8.625 11.45H15.625C16.035 11.45 16.375 11.79 16.375 12.2C16.375 12.61 16.035 12.95 15.625 12.95Z" fill="#C7C7C7"/>
</svg>
