<svg width="20" height="20" viewBox="0 0 20 20" fill="none" xmlns="http://www.w3.org/2000/svg">
<path d="M17.5584 4.35829C16.2167 4.22496 14.875 4.12496 13.525 4.04996V4.04163L13.3417 2.95829C13.2167 2.19163 13.0334 1.04163 11.0834 1.04163H8.90005C6.95838 1.04163 6.77505 2.14163 6.64172 2.94996L6.46672 4.01663C5.69172 4.06663 4.91672 4.11663 4.14172 4.19163L2.44172 4.35829C2.09172 4.39163 1.84172 4.69996 1.87505 5.04163C1.90838 5.38329 2.20838 5.63329 2.55838 5.59996L4.25838 5.43329C8.62505 4.99996 13.0251 5.16663 17.4417 5.60829C17.4667 5.60829 17.4834 5.60829 17.5084 5.60829C17.8251 5.60829 18.1 5.36663 18.1334 5.04163C18.1584 4.69996 17.9084 4.39163 17.5584 4.35829Z" fill="#FF5151"/>
<path d="M16.025 6.78337C15.825 6.57504 15.55 6.45837 15.2666 6.45837H4.73329C4.44995 6.45837 4.16662 6.57504 3.97495 6.78337C3.78329 6.99171 3.67495 7.27504 3.69162 7.56671L4.20829 16.1167C4.29995 17.3834 4.41662 18.9667 7.32495 18.9667H12.675C15.5833 18.9667 15.7 17.3917 15.7916 16.1167L16.3083 7.57504C16.325 7.27504 16.2166 6.99171 16.025 6.78337ZM11.3833 14.7917H8.60829C8.26662 14.7917 7.98329 14.5084 7.98329 14.1667C7.98329 13.825 8.26662 13.5417 8.60829 13.5417H11.3833C11.725 13.5417 12.0083 13.825 12.0083 14.1667C12.0083 14.5084 11.725 14.7917 11.3833 14.7917ZM12.0833 11.4584H7.91662C7.57495 11.4584 7.29162 11.175 7.29162 10.8334C7.29162 10.4917 7.57495 10.2084 7.91662 10.2084H12.0833C12.425 10.2084 12.7083 10.4917 12.7083 10.8334C12.7083 11.175 12.425 11.4584 12.0833 11.4584Z" fill="#FF5151"/>
</svg>
