<svg width="50" height="50" viewBox="0 0 50 50" fill="none" xmlns="http://www.w3.org/2000/svg">
<path d="M42.8227 32.316C42.7904 31.5959 42.645 30.8849 42.3917 30.21C41.6367 28.1977 39.979 26.6581 37.9165 26.0537C37.6978 25.9912 37.4729 25.9349 37.2416 25.8913V25.8911C37.0535 25.8523 36.8638 25.8233 36.6729 25.8037C36.4481 25.8037 36.2229 25.7725 35.9916 25.7725H35.779H35.7792C33.9885 25.8213 32.2876 26.5671 31.0385 27.8512C29.7896 29.1353 29.0909 30.8559 29.0917 32.6475C29.0892 32.9232 29.106 33.1988 29.1417 33.4723C29.1696 33.732 29.2176 33.989 29.2854 34.2413C29.3216 34.4042 29.3677 34.5649 29.4229 34.7223C30.097 36.8155 31.7318 38.4594 33.8208 39.1459C35.9098 39.8323 38.2011 39.4779 39.9852 38.1927C41.7694 36.9073 42.8312 34.8462 42.8417 32.6475C42.8292 32.5286 42.8292 32.4223 42.8227 32.316ZM38.8415 33.1159L38.8417 33.1162C38.7315 33.2044 38.5951 33.2527 38.4542 33.2535C38.2639 33.2527 38.0845 33.1653 37.9667 33.0161L36.5792 31.2786V35.7473C36.5792 36.0925 36.2993 36.3723 35.9542 36.3723C35.609 36.3723 35.3292 36.0925 35.3292 35.7473V31.2786L33.9416 33.0161C33.8236 33.1653 33.6442 33.2527 33.4542 33.2535C33.3132 33.2527 33.1765 33.2044 33.0666 33.1162C32.7985 32.9014 32.7538 32.5108 32.9667 32.2412L35.4354 29.16V29.1597C35.4421 29.143 35.4527 29.1279 35.4667 29.1162C35.4951 29.0783 35.5286 29.0445 35.5666 29.016L35.6291 28.9722L35.6854 28.941H36.0727L36.1291 28.9722L36.1916 29.016C36.2295 29.0445 36.263 29.0783 36.2914 29.1162L36.3227 29.16L38.7914 32.2412C39.0442 32.4703 39.0665 32.8595 38.8416 33.1162L38.8415 33.1159ZM15.035 17.0659C15.035 17.4209 14.8941 17.761 14.6433 18.0118C14.3925 18.2626 14.0523 18.4035 13.6974 18.4035C13.3428 18.4035 13.0027 18.2626 12.7519 18.0118C12.501 17.761 12.3601 17.4208 12.3601 17.0659C12.3601 16.7113 12.501 16.3712 12.7519 16.1204C13.0027 15.8695 13.3428 15.7286 13.6974 15.7286C14.0523 15.7286 14.3925 15.8695 14.6433 16.1204C14.8941 16.3712 15.035 16.7113 15.035 17.0659ZM17.9851 21.141L22.1352 24.1037L28.304 17.9349H28.3038C28.5459 17.7008 28.9304 17.7008 29.1726 17.9349L36.2538 24.5161H36.7413L37.21 24.5786V14.3036C37.21 13.3089 36.8149 12.3552 36.1118 11.6518C35.4084 10.9487 34.4547 10.5536 33.46 10.5536H10.9286C9.93416 10.5536 8.98023 10.9487 8.27709 11.6518C7.57368 12.3552 7.17859 13.3089 7.17859 14.3036V27.9907L17.2722 21.1157C17.4917 20.9743 17.7758 20.9843 17.9848 21.1406L17.9851 21.141ZM13.6975 19.6536C13.0114 19.6536 12.3532 19.381 11.868 18.8958C11.3827 18.4106 11.1102 17.7524 11.1102 17.066C11.1102 16.3799 11.3828 15.7217 11.868 15.2365C12.3532 14.7513 13.0114 14.4787 13.6975 14.4787C14.3838 14.4787 15.042 14.7513 15.5272 15.2365C16.0125 15.7217 16.285 16.3799 16.285 17.066C16.285 17.7524 16.0124 18.4106 15.5272 18.8958C15.0421 19.381 14.3838 19.6536 13.6975 19.6536ZM28.0725 34.5036C28.0725 34.5722 28.0725 34.6411 28.1224 34.7036H10.9288C9.93441 34.7036 8.98048 34.3086 8.27733 33.6054C7.57393 32.902 7.17883 31.9484 7.17883 30.9536V29.5036L17.616 22.4099L21.8408 25.4286L21.8411 25.4289C22.0903 25.6063 22.4315 25.5773 22.6472 25.3599L28.7535 19.2414L34.5408 24.6225C32.6591 24.9548 30.9549 25.9395 29.7272 27.4038C28.4995 28.8681 27.8273 30.7179 27.8285 32.6287C27.8257 32.9545 27.8444 33.2804 27.8846 33.6038C27.9186 33.9076 27.975 34.2084 28.0534 34.5037L28.0725 34.5036Z" fill="#C7C7C7"/>
</svg>
