<svg width="17" height="21" viewBox="0 0 17 21" fill="none" xmlns="http://www.w3.org/2000/svg">
<path d="M16.8174 17.0879C16.338 15.6599 14.4255 14.766 13.0624 14.1669C12.5282 13.9332 11.0489 13.5364 10.8713 12.8632C10.5922 11.7998 11.6522 10.9891 12.1234 10.1517C12.5821 9.33544 12.9668 8.25474 13.0871 7.30701H4.28184C4.46429 8.8664 5.1212 10.0879 5.8124 11.0377C6.19895 11.5688 6.60489 11.9109 6.54268 12.5503C6.46993 13.3069 5.66136 13.5177 5.08258 13.7498C4.39654 14.0258 3.65826 14.4441 3.30931 14.6372C2.10816 15.3011 0.789343 16.0997 0.492931 17.1921C-0.163643 19.6151 2.05312 20.3482 3.88301 20.6872C5.45378 20.9774 7.22459 21 8.68086 21C11.3154 21 16.0537 20.8945 16.817 18.9138C17.0348 18.3515 16.9412 17.4561 16.817 17.088L16.8174 17.0879Z" fill="#C7C7C7"/>
<path d="M3.77879 6.45013H13.5441C13.9249 6.45013 14.233 6.14171 14.233 5.76118C14.233 5.38066 13.9248 5.07257 13.5441 5.07257H13.3564C13.3564 3.24251 12.3087 1.65853 10.7811 0.883459L10.3921 3.0898C10.3613 3.2646 10.2093 3.38732 10.0379 3.38732C10.0171 3.38732 9.99609 3.3857 9.9751 3.38195C9.77914 3.34696 9.64861 3.1606 9.68327 2.96446L10.1273 0.444494C9.96109 0.177735 9.66536 0 9.32749 0H7.99513C7.65757 0 7.36218 0.177731 7.19535 0.444494L7.63968 2.96446C7.67418 3.16026 7.54349 3.34694 7.34785 3.38195C7.32686 3.3857 7.30586 3.38732 7.28503 3.38732C7.11348 3.38732 6.96147 3.2646 6.93054 3.0898L6.54188 0.884084C5.01406 1.65832 3.96654 3.2423 3.96654 5.07277H3.77871C3.39819 5.07277 3.0901 5.38104 3.0901 5.76139C3.0901 6.14159 3.39836 6.45001 3.77888 6.45001L3.77879 6.45013Z" fill="#C7C7C7"/>
</svg>
